# xmcd
# 
# Track frame offsets:
#     182
#     18077
#     38095
#     67435
# 
# Disc length: 1407
# 
# Revision: 5
# Processed by: cddbd v1.5.2PL0 Copyright (c) Steve Scherf et al.
# Submitted via: fre:ac v1.0.31
# 
DISCID=2f057d04
DTITLE=CJ Lewis - R To The A
DYEAR=1995
DGENRE=Hip-Hop
TTITLE0=R To The A [Radio 7'Inch]
TTITLE1=R To The A [Album Mix]
TTITLE2=R To The A [Drum and Bass Mix]
TTITLE3=R To The A [Knuckleleads Mix]
EXTD=
EXTT0=
EXTT1=
EXTT2=
EXTT3=
PLAYORDER=
